<?xml version="1.0" encoding="UTF-8"?>
<svg width="16px" height="16px" viewBox="0 0 16 16" version="1.1" xmlns="http://www.w3.org/2000/svg" xmlns:xlink="http://www.w3.org/1999/xlink">
    <!-- Generator: sketchtool 60 (101010) - https://sketch.com -->
    <title>F9ACA7E2-CC0D-4438-95EC-7C72B9C55FBF</title>
    <desc>Created with sketchtool.</desc>
    <g id="Page-1" stroke="none" stroke-width="1" fill="none" fill-rule="evenodd">
        <g id="Sport" transform="translate(-246.000000, -165.000000)" fill="#727C87" fill-rule="nonzero">
            <g id="menu">
                <g id="search" transform="translate(24.000000, 149.000000)">
                    <path d="M237.804483,30.8620936 L233.254533,26.3120936 C234.135867,25.2234373 234.666517,23.8400936 234.666517,22.3334373 C234.666517,18.8414373 231.825205,16.0000936 228.333243,16.0000936 C224.841281,16.0000936 222,18.8414061 222,22.3334061 C222,25.8254061 224.841313,28.6667498 228.333274,28.6667498 C229.839914,28.6667498 231.223242,28.1360936 232.311887,27.2547498 L236.861837,31.8047498 C236.991835,31.9347498 237.16249,32.0000936 237.333175,32.0000936 C237.503861,32.0000936 237.674515,31.9347498 237.804514,31.8047498 C238.065167,31.5440936 238.065167,31.1227498 237.804483,30.8620936 Z M228.333274,27.3334061 C225.575961,27.3334061 223.333329,25.0907498 223.333329,22.3334061 C223.333329,19.5760623 225.575961,17.3334061 228.333274,17.3334061 C231.090588,17.3334061 233.333219,19.5760623 233.333219,22.3334061 C233.333219,25.0907498 231.090556,27.3334061 228.333274,27.3334061 Z"></path>
                </g>
            </g>
        </g>
    </g>
</svg>